<?xml version="1.0" encoding="UTF-8" standalone="no"?>
<!-- Created with Inkscape (http://www.inkscape.org/) -->

<svg
   width="109.49677mm"
   height="109.49677mm"
   viewBox="0 0 109.49677 109.49677"
   version="1.1"
   id="svg5"
   xml:space="preserve"
   inkscape:version="1.2 (dc2aedaf03, 2022-05-15)"
   sodipodi:docname="boom.svg"
   xmlns:inkscape="http://www.inkscape.org/namespaces/inkscape"
   xmlns:sodipodi="http://sodipodi.sourceforge.net/DTD/sodipodi-0.dtd"
   xmlns="http://www.w3.org/2000/svg"
   xmlns:svg="http://www.w3.org/2000/svg"><sodipodi:namedview
     id="namedview7"
     pagecolor="#ffffff"
     bordercolor="#000000"
     borderopacity="0.24705882"
     inkscape:showpageshadow="2"
     inkscape:pageopacity="0"
     inkscape:pagecheckerboard="true"
     inkscape:deskcolor="#ffffff"
     inkscape:document-units="cm"
     showgrid="false"
     inkscape:zoom="2.1089995"
     inkscape:cx="135.60933"
     inkscape:cy="234.70845"
     inkscape:window-width="1920"
     inkscape:window-height="1017"
     inkscape:window-x="-8"
     inkscape:window-y="-8"
     inkscape:window-maximized="1"
     inkscape:current-layer="g179" /><defs
     id="defs2" /><g
     inkscape:label="Vrstva 1"
     inkscape:groupmode="layer"
     id="layer1"
     transform="translate(-52.590317,-96.235487)"><g
       id="g179"
       transform="translate(3.9032253,5.6774197)"><path
         style="fill:#ffffff;fill-opacity:1;stroke-width:0.264583"
         d="m 88.34483,138.38818 c -0.378092,-0.83864 -1.071398,-1.4383 -1.505452,-2.25818 -0.167175,-0.31578 -0.231254,-0.67714 -0.376365,-1.00364 -0.549971,-1.23743 -1.05102,-2.32226 -1.379998,-3.63818 -0.1026,-0.41039 -0.273767,-0.71869 -0.376364,-1.12909 -0.08116,-0.32465 -0.09844,-1.83739 0,-2.13272 0.143116,-0.42935 1.039061,-0.25091 1.379998,-0.25091 0.879469,0 1.896517,-0.14392 2.759998,0 1.539489,0.25658 3.010236,1.06603 4.390906,1.75636 0.560221,0.28011 0.906685,0.75044 1.379998,1.12909 0.495752,0.3966 1.141264,0.61192 1.630907,1.00364 0.138541,0.11083 0.211635,0.31047 0.376365,0.37636 0.472352,0.18894 1.008827,0.14055 1.505452,0.25091 0.167273,0.0418 0.334545,0.0836 0.501817,0.12545 0.04182,0.0418 0.06808,0.11111 0.125455,0.12546 0.374549,0.0936 1.409463,0.0867 1.756363,0 0.48852,-0.12214 0.80672,-0.61679 1.12909,-1.00364 1.27385,-1.52862 0.87818,-3.6691 0.87818,-5.51999 0,-0.29273 -0.0926,-0.60048 0,-0.87818 0.0477,-0.14305 0.19151,-0.23778 0.25091,-0.37637 0.082,-0.19138 0.12884,-0.67473 0.25091,-0.87818 0.25004,-0.41673 0.63681,-0.71018 1.00363,-1.00364 0.13855,-0.11083 0.23443,-0.26991 0.37637,-0.37636 0.39274,-0.29456 1.97035,0.54713 2.25818,0.75273 0.45767,0.32691 1.33718,1.16094 1.63091,1.63091 0.11935,0.19096 0.13155,0.4363 0.2509,0.62727 0.094,0.15045 0.27795,0.22874 0.37637,0.37636 0.32529,0.48794 0.40672,1.35249 0.62727,1.88182 0.33158,0.79579 0.63167,1.6059 1.00363,2.38363 0.21042,0.43995 0.52323,0.82424 0.75273,1.25455 0.50143,0.94018 0.52058,1.74698 1.75636,1.12909 0.46241,-0.23121 0.78421,-0.64302 1.25455,-0.87818 0.43861,-0.21931 0.91811,-0.34786 1.38,-0.50182 0.47463,-0.15821 0.91648,-0.44187 1.37999,-0.62728 0.61391,-0.24556 1.26791,-0.3817 1.88182,-0.62727 0.26046,-0.10418 0.4866,-0.28765 0.75273,-0.37636 0.11901,-0.0397 0.25734,0.0397 0.37636,0 0.26613,-0.0887 0.4882,-0.283 0.75273,-0.37636 1.25763,-0.44387 2.69781,-0.85734 4.01454,-1.00364 0.21193,-0.0236 0.4151,-0.10424 0.62727,-0.12545 0.65493,-0.0655 1.3461,0 2.00727,0 0.0418,0 0.10675,-0.0374 0.12546,0 0.0561,0.11221 0,0.25091 0,0.37636 0,0.2225 0.0515,0.54687 0,0.75273 -0.26991,1.07961 -1.19097,1.96668 -1.75637,2.88545 -0.57994,0.94241 -0.88797,2.02686 -1.37999,3.01091 -0.16079,0.32156 -0.50646,0.76663 -0.62728,1.12908 -0.0264,0.0794 0.0265,0.17157 0,0.25091 -0.11298,0.33896 -0.23562,0.67523 -0.37636,1.00364 -0.20071,0.46833 -0.55201,0.91167 -0.75273,1.38 -0.21903,0.51108 -0.29273,1.10818 -0.50181,1.6309 -0.16782,0.41954 -0.67176,0.8702 -0.50182,1.38001 0.17986,0.53959 0.91532,0.67562 1.38,1.00363 1.30363,0.92021 2.71005,1.79412 4.13999,2.50909 1.43258,0.71629 5.52,1.21967 5.52,3.26181 0,0.20909 0.0661,0.42892 0,0.62728 -0.32274,0.96822 -1.42951,1.66314 -2.13273,2.25818 -0.46283,0.39162 -0.95663,1.06639 -1.50545,1.37999 -0.19553,0.11173 -0.43175,0.13918 -0.62727,0.25091 -0.1027,0.0587 -0.1525,0.1853 -0.25091,0.25091 -0.45862,0.30575 -1.02326,0.48484 -1.50546,0.75273 -0.34486,0.19159 -0.64312,0.46704 -1.00363,0.62727 -0.36253,0.16112 -0.78464,0.17953 -1.12909,0.37636 -0.18154,0.10374 -0.31075,0.29145 -0.50182,0.37637 -0.19485,0.0866 -0.43655,0.0301 -0.62727,0.12545 -0.0836,0.0418 -0.0477,0.19904 -0.12546,0.25091 -0.0696,0.0464 -0.19176,-0.0591 -0.2509,0 -0.11828,0.11828 0,0.33455 0,0.50182 0,0.32895 0.15104,0.45313 0.2509,0.75272 0.33365,1.00094 1.33943,1.45677 2.00728,2.25818 0.2963,0.35556 0.72107,1.1716 0.87818,1.50546 0.45675,0.97059 0.78605,2.14538 1.12909,3.13636 0.16011,0.46254 0.37826,0.90638 0.50182,1.38 0.12841,0.49226 0.16727,1.00363 0.2509,1.50545 0.16728,0.50182 0.35256,0.99798 0.50182,1.50545 0.0283,0.0962 0.17966,0.98659 0.25091,1.12909 0.0529,0.1058 0.20698,0.14109 0.25091,0.25091 0.1024,0.256 0.11433,1.55786 -0.25091,1.63091 -0.96785,0.19357 -2.53137,-0.0882 -3.38727,-0.12545 -0.65517,-0.0285 -1.35546,0.0815 -2.00727,0 -1.67729,-0.20967 -3.39947,-0.68763 -5.01818,-1.1291 -1.61257,-0.43979 -3.10042,-0.75272 -4.76727,-0.75272 -0.32513,0 -0.91491,-0.0849 -1.25454,0 -0.33976,0.0849 -1.2476,1.42818 -1.50545,1.75636 -1.08441,1.38016 -2.15558,2.72585 -3.01091,4.26545 -0.76235,1.37223 -1.29714,2.80306 -2.13272,4.14 -0.22798,0.36476 -0.50014,0.66685 -0.75273,1.00363 -0.25368,0.33824 -0.4971,1.06872 -1.12909,0.75273 -0.4504,-0.2252 -0.71095,-0.71933 -1.00364,-1.12909 -0.84629,-1.18482 -1.16121,-2.51211 -1.50545,-3.88909 -0.0596,-0.23846 -0.15432,-0.87152 -0.25091,-1.12909 -0.0657,-0.17511 -0.20555,-0.32038 -0.25091,-0.50181 -0.0406,-0.16228 0.0363,-0.33853 0,-0.50182 -0.14007,-0.63032 -0.59331,-1.18662 -0.87818,-1.75636 -0.343016,-0.68604 -0.539197,-1.45476 -0.878179,-2.13273 -0.13486,-0.26972 -0.366958,-0.48301 -0.501819,-0.75273 -0.284403,-0.5688 -0.306311,-1.16984 -0.501817,-1.75636 -0.167044,-0.50113 -0.557924,-0.89299 -0.752726,-1.38 -0.09823,-0.24556 -0.114834,-0.52593 -0.25091,-0.75272 -0.345426,-0.57572 -1.15716,-0.0592 -1.630907,0 -0.124487,0.0156 -0.253897,-0.0272 -0.376362,0 -0.258183,0.0574 -0.501819,0.16727 -0.752729,0.2509 -0.459999,0.0418 -0.925129,0.0452 -1.379998,0.12546 -0.260456,0.046 -0.491844,0.20743 -0.752726,0.25091 -1.728944,0.28816 -1.07491,0.0358 -2.509089,0.12545 -0.336492,0.021 -0.667144,0.10443 -1.003636,0.12546 -0.744016,0.0465 -1.647542,-0.14722 -2.383634,0 -2.019953,0.40399 1.06384,0.16225 -1.505452,0.37636 -0.382318,0.0319 -2.179413,0.10989 -2.509089,0 -0.11221,-0.0374 -0.213506,-0.1387 -0.25091,-0.25091 -0.17976,-0.53928 1.796995,-3.3657 1.881817,-3.51272 0.280369,-0.48598 0.482346,-1.01386 0.752727,-1.50546 1.086186,-1.97488 2.385049,-3.77213 2.759998,-6.02181 0.06148,-0.36891 0.169733,-1.71208 -0.125455,-2.00727 -0.09351,-0.0935 -0.2731,-0.0428 -0.376364,-0.12546 -0.294151,-0.23532 -0.188828,-0.37722 -0.376362,-0.62727 -0.268804,-0.3584 -0.773438,-0.73689 -1.129091,-1.00363 -0.158448,-0.11884 -0.906169,-0.32222 -1.003636,-0.37636 -0.344863,-0.1916 -0.680437,-0.40104 -1.003633,-0.62728 -0.990402,-0.69328 -0.678966,-0.67896 -1.630908,-1.6309 -3.373193,-3.3732 1.863297,2.22526 -1.756362,-1.75637 -0.278217,-0.30603 -0.54665,-0.75498 -0.878181,-1.00363 -0.137938,-0.10345 -0.379899,-0.004 -0.501819,-0.12546 -0.03234,-0.0323 -0.251954,-0.79384 -0.125454,-0.87818 0.110031,-0.0734 0.250909,-0.0836 0.376363,-0.12545 1.643782,-0.54793 -0.750396,0.31247 0.627272,-0.37636 0.35484,-0.17742 0.767929,-0.2122 1.12909,-0.37637 1.29376,-0.58807 2.532206,-1.17814 3.763632,-1.88181 0.162378,-0.0928 0.354198,-0.1361 0.501819,-0.25091 0.233411,-0.18154 0.404736,-0.43256 0.627272,-0.62727 0.226944,-0.19858 0.539496,-0.28859 0.752726,-0.50182 0.147868,-0.14787 0.827339,-1.05117 0.878181,-1.25455 0.02029,-0.0811 -0.03106,-0.17325 0,-0.25091 0.07766,-0.19413 0.310243,-0.30345 0.376365,-0.50181 0.06007,-0.1802 0.04549,-0.92368 0.125452,-1.00364 0.150778,-0.15078 0.42041,-0.0737 0.627274,-0.12545 z"
         id="path2873"
         transform="translate(-3.9032261,-5.6774187)" /><path
         style="fill:#fe997a;stroke-width:1.14059"
         d="m 99.569493,165.18504 c -2.00365,-11.59298 -1.224735,-10.7107 -7.889308,-8.93633 -8.193042,2.18131 -8.159841,2.20814 -4.267782,-3.44877 4.387634,-6.37721 4.471768,-5.99472 -1.94124,-8.82517 -5.417809,-2.39121 -5.417809,-2.39121 -1.425739,-3.47053 5.830704,-1.57643 6.166351,-2.37567 3.514904,-8.3697 -3.057721,-6.91249 -2.728336,-7.1167 4.402141,-2.72927 6.713058,4.13058 6.450852,4.20676 8.494521,-2.46778 1.53497,-5.01316 1.53497,-5.01316 3.51719,-0.4508 1.09022,2.50931 2.11818,4.7095 2.28436,4.88933 0.16617,0.17982 2.93519,-0.71091 6.15338,-1.9794 6.95155,-2.74004 6.93552,-2.78445 1.85917,5.15115 -4.9469,7.73325 -5.14904,7.02821 2.28119,7.95655 7.32178,0.9148 7.73155,1.68421 2.28118,4.28331 -4.8019,2.28987 -4.79193,2.12554 -0.5913,9.74563 1.8477,3.35178 2.73662,5.84405 1.97538,5.53838 -14.51,-5.82639 -13.0365,-5.92729 -16.60874,1.13725 -3.26491,6.45676 -3.26491,6.45676 -4.039307,1.97615 z m 5.501537,-12.35997 c 0.7232,-4.82266 0.9661,-5.09107 5.26427,-5.81724 2.47835,-0.41871 4.50609,-1.18433 4.50609,-1.70138 0,-0.51704 -2.02774,-1.28266 -4.50609,-1.70138 -4.29817,-0.72617 -4.54107,-0.99458 -5.26427,-5.81723 -0.96001,-6.40185 -2.31076,-7.29591 -3.27306,-2.16643 -0.89832,4.78843 -0.87688,4.78545 -6.073478,0.84546 -2.47436,-1.87603 -3.883756,-2.44903 -3.506866,-1.42574 3.816596,10.36238 3.792,10.15283 1.622717,13.82514 -2.082006,3.52455 -2.082006,3.52455 1.452966,2.74814 3.225489,-0.70843 3.703175,-0.42368 5.456231,3.25252 2.36323,4.95573 3.34145,4.49353 4.32149,-2.04186 z"
         id="path183" /><path
         style="fill:#fe3c00;stroke-width:1.14059"
         d="m 95.599982,181.60514 c -0.690633,-3.96748 -1.589641,-9.65162 -1.997795,-12.63142 -0.865935,-6.32188 -0.365217,-6.22512 -13.505375,-2.6099 -12.54243,3.45077 -12.299848,3.75693 -5.273465,-6.65572 7.309295,-10.8319 7.539369,-9.98115 -3.894724,-14.40165 -11.933793,-4.61368 -11.933793,-4.70323 0,-8.05052 5.332265,-1.49564 9.695027,-3.15156 9.695027,-3.67983 0,-0.52826 -2.123075,-6.0762 -4.717946,-12.32875 -5.795236,-13.96408 -6.053134,-13.75253 6.734741,-5.52452 13.018036,8.3761 11.875292,8.57647 15.045399,-2.63808 3.549276,-12.55589 3.508936,-12.55176 8.043456,-0.82277 2.1758,5.62796 4.37528,10.23264 4.88772,10.23264 0.51245,0 5.39375,-1.85255 10.84734,-4.11678 5.45358,-2.26423 11.04884,-4.55301 12.4339,-5.08617 2.0004,-0.77002 1.00349,1.37244 -4.84751,10.4178 -9.0946,14.05981 -9.28089,12.96062 2.4935,14.71236 16.83237,2.50424 16.72875,2.29067 3.85924,7.95473 -6.29055,2.76856 -11.43737,5.50173 -11.43737,6.07371 0,0.99082 5.82299,12.01841 10.53677,19.95456 2.56522,4.31881 3.84757,4.55986 -13.03853,-2.45095 -12.47164,-5.178 -11.08553,-5.53132 -16.29088,4.1525 -8.729674,16.24033 -8.13316,15.77309 -9.573498,7.49876 z m 11.645068,-23.37959 c 0.20285,-0.20284 3.52461,0.9135 7.38169,2.48078 3.85708,1.56727 7.30482,2.84958 7.66165,2.84958 0.35683,0 -1.18555,-3.2801 -3.42752,-7.28911 -4.0763,-7.28911 -4.0763,-7.28911 1.08049,-9.40988 6.53317,-2.68681 6.48723,-3.50106 -0.25246,-4.47396 -8.54612,-1.23367 -8.63245,-1.45686 -3.61552,-9.34754 4.98656,-7.84293 4.79653,-8.15533 -2.94288,-4.83784 -6.73771,2.88812 -5.95817,3.16667 -8.77813,-3.13662 -2.42382,-5.41781 -2.42382,-5.41781 -4.11655,0.57029 -2.008848,7.10642 -1.888627,7.0826 -9.894997,1.96099 -7.108999,-4.54758 -7.38494,-4.20453 -3.565308,4.43234 2.730091,6.17322 2.730091,6.17322 -3.136626,7.83349 -5.866717,1.66027 -5.866717,1.66027 -0.187134,4.1963 3.123771,1.39481 5.867892,2.72433 6.098048,2.95449 0.230155,0.23016 -1.220284,2.8003 -3.223196,5.71144 -4.47015,6.49713 -4.092245,6.96161 3.797891,4.66788 3.436524,-0.99902 6.49504,-1.81641 6.796701,-1.81641 0.301662,0 0.915539,2.95128 1.364174,6.5584 1.133474,9.1134 1.563408,9.3149 5.299137,2.4836 1.81045,-3.31068 3.45769,-6.18537 3.66054,-6.38822 z"
         id="path181" /></g></g></svg>
